<svg viewBox="0 0 49 40" fill="none" xmlns="http://www.w3.org/2000/svg">
    <path
        d="M1.86575 39.9716L9.28975 11.5556L11.4658 21.1556C8.47908 21.1556 5.96175 20.2169 3.91375 18.3396C1.95108 16.4622 0.96975 13.9449 0.96975 10.7876C0.96975 7.63023 1.95108 5.1129 3.91375 3.23557C5.96175 1.27291 8.43642 0.291573 11.3378 0.291573C14.3244 0.291573 16.7991 1.27291 18.7618 3.23557C20.7244 5.19824 21.7058 7.71557 21.7058 10.7876C21.7058 11.7262 21.6204 12.7076 21.4498 13.7316C21.3644 14.6702 21.1084 15.7796 20.6818 17.0596C20.3404 18.2542 19.7431 19.8329 18.8898 21.7956L12.2338 39.9716H1.86575ZM29.0018 39.9716L36.4258 11.5556L38.6018 21.1556C35.6151 21.1556 33.0978 20.2169 31.0498 18.3396C29.0871 16.4622 28.1058 13.9449 28.1058 10.7876C28.1058 7.63023 29.0871 5.1129 31.0498 3.23557C33.0978 1.27291 35.5724 0.291573 38.4738 0.291573C41.4604 0.291573 43.9351 1.27291 45.8978 3.23557C47.8604 5.19824 48.8418 7.71557 48.8418 10.7876C48.8418 11.7262 48.7564 12.7076 48.5858 13.7316C48.5004 14.6702 48.2444 15.7796 47.8178 17.0596C47.4764 18.2542 46.8791 19.8329 46.0258 21.7956L39.3698 39.9716H29.0018Z"
        fill="#FE6F17" />
</svg>